Coordinates
version=1
nRows=31
nColumns=38
inDegrees=no

Units are S.I. units (second, meters, Newtons, ...)
If the header above contains a line with 'inDegrees', this indicates whether rotational values are in degrees (yes) or radians (no).

endheader
time	pelvis_tilt	pelvis_list	pelvis_rotation	pelvis_tx	pelvis_ty	pelvis_tz	hip_flexion_r	hip_adduction_r	hip_rotation_r	knee_angle_r	ankle_angle_r	subtalar_angle_r	mtp_angle_r	hip_flexion_l	hip_adduction_l	hip_rotation_l	knee_angle_l	ankle_angle_l	subtalar_angle_l	mtp_angle_l	lumbar_extension	lumbar_bending	lumbar_rotation	arm_flex_r	arm_add_r	arm_rot_r	elbow_flex_r	pro_sup_r	wrist_flex_r	wrist_dev_r	arm_flex_l	arm_add_l	arm_rot_l	elbow_flex_l	pro_sup_l	wrist_flex_l	wrist_dev_l
140	3.14102	1.36666	-1.45135	0.745692	0.41315	1.08946	0.129317	-0.0611131	0.120461	0.977024	-0.3275	0	0	-0.217204	0.0221859	-0.09652	0.233272	-0.269636	0	0	-0.465369	-0.0662116	0.110446	0.154366	-0.413091	-0.0207364	1.69747	1.5708	0	0	0.314314	0.0381209	0.21339	1.50185	1.5708	0	0
140.01	3.13322	1.37149	-1.44227	0.74432	0.41827	1.08902	0.145795	-0.0576356	0.114365	0.951448	-0.318094	0	0	-0.215964	0.0219639	-0.0951295	0.235997	-0.265993	0	0	-0.463715	-0.0644414	0.108511	0.156841	-0.414442	-0.0202043	1.69768	1.5708	0	0	0.315447	0.0396561	0.212313	1.50267	1.5708	0	0
140.02	3.12549	1.37329	-1.43405	0.743086	0.423447	1.08886	0.157763	-0.0543971	0.106815	0.921853	-0.312289	0	0	-0.218646	0.0212396	-0.0963962	0.237682	-0.262882	0	0	-0.465546	-0.0625385	0.107627	0.159381	-0.415714	-0.0203049	1.69938	1.5708	0	0	0.317179	0.0410378	0.211554	1.50426	1.5708	0	0
140.03	3.11807	1.37421	-1.42672	0.74201	0.428592	1.08872	0.167767	-0.0511287	0.0998163	0.889516	-0.308617	0	0	-0.222187	0.0203154	-0.0990461	0.239889	-0.259366	0	0	-0.468481	-0.0612964	0.107651	0.162156	-0.417139	-0.0211881	1.70137	1.5708	0	0	0.319761	0.0422404	0.211429	1.50608	1.5708	0	0
140.04	3.11178	1.37544	-1.42088	0.741026	0.433717	1.08846	0.177268	-0.0484515	0.0939678	0.854991	-0.306254	0	0	-0.225313	0.0196502	-0.10258	0.242312	-0.255836	0	0	-0.471088	-0.0608023	0.10819	0.164911	-0.418951	-0.0224992	1.7035	1.5708	0	0	0.322793	0.043132	0.211979	1.50803	1.5708	0	0
140.05	3.10518	1.37805	-1.41445	0.740009	0.438964	1.088	0.187002	-0.0461539	0.0883171	0.818284	-0.30385	0	0	-0.227201	0.0191353	-0.105635	0.244406	-0.252435	0	0	-0.471943	-0.0607132	0.109371	0.165894	-0.420414	-0.0251515	1.70614	1.5708	0	0	0.32599	0.0440266	0.213735	1.50937	1.5708	0	0
140.06	2.94837	1.47315	-1.26338	0.738044	0.451455	1.08078	0.296298	-0.043283	0.093385	0.783709	-0.307307	0	0	-0.130273	0.0219983	-0.104175	0.249874	-0.247831	0	0	-0.206696	0.0452913	0.377155	-0.14483	-0.429717	-0.307088	1.7368	1.5708	0	0	0.722617	-0.0380224	1.03581	1.01694	1.5708	0	0
140.07	3.08896	1.38243	-1.39677	0.737945	0.449694	1.08704	0.200567	-0.0412836	0.0769327	0.737251	-0.302738	0	0	-0.232238	0.0166596	-0.110778	0.248091	-0.245074	0	0	-0.473138	-0.0567684	0.107707	0.172217	-0.424064	-0.0241558	1.70936	1.5708	0	0	0.329285	0.0473577	0.21051	1.51314	1.5708	0	0
140.08	3.08308	1.38414	-1.39039	0.736996	0.455113	1.08651	0.205017	-0.0394323	0.0727632	0.693724	-0.304253	0	0	-0.235659	0.015729	-0.113695	0.249582	-0.241277	0	0	-0.473582	-0.0541671	0.107375	0.175546	-0.426143	-0.0233983	1.71149	1.5708	0	0	0.330698	0.0499032	0.207869	1.51404	1.5708	0	0
140.09	3.0778	1.3858	-1.38463	0.736105	0.460679	1.08591	0.208091	-0.0376423	0.0688016	0.64887	-0.308247	0	0	-0.239426	0.0147212	-0.117662	0.250801	-0.237837	0	0	-0.473837	-0.0520227	0.107264	0.178085	-0.428129	-0.0229408	1.71414	1.5708	0	0	0.332024	0.0518437	0.206059	1.51509	1.5708	0	0
140.1	3.07277	1.38753	-1.37896	0.735269	0.466399	1.08524	0.209932	-0.0357468	0.0639839	0.603211	-0.314647	0	0	-0.243532	0.0136104	-0.121556	0.251689	-0.23428	0	0	-0.473801	-0.0501449	0.107365	0.179644	-0.430063	-0.0227504	1.71718	1.5708	0	0	0.333221	0.0532721	0.204943	1.5164	1.5708	0	0
140.11	3.06994	1.38959	-1.37571	0.734604	0.472122	1.0845	0.211254	-0.0339127	0.059752	0.557645	-0.323285	0	0	-0.247309	0.0128782	-0.124864	0.252748	-0.230511	0	0	-0.4738	-0.0490013	0.107718	0.180736	-0.431097	-0.0236275	1.72069	1.5708	0	0	0.334671	0.054465	0.203951	1.51829	1.5708	0	0
140.12	3.06765	1.39251	-1.37315	0.734047	0.477919	1.08363	0.212817	-0.0326779	0.0558654	0.512263	-0.334384	0	0	-0.250045	0.0123411	-0.127915	0.254309	-0.226502	0	0	-0.473319	-0.0480706	0.107492	0.182094	-0.431763	-0.0240311	1.72456	1.5708	0	0	0.335334	0.0553133	0.202179	1.52166	1.5708	0	0
140.13	3.06519	1.39597	-1.36994	0.733534	0.483959	1.08274	0.213579	-0.0320602	0.0510327	0.466669	-0.346258	0	0	-0.252396	0.0116397	-0.13042	0.25576	-0.222764	0	0	-0.471608	-0.0473139	0.107462	0.181895	-0.43221	-0.0248987	1.7285	1.5708	0	0	0.335426	0.0560096	0.201033	1.52439	1.5708	0	0
140.14	3.06357	1.39893	-1.36745	0.73303	0.490137	1.08188	0.212498	-0.031587	0.0455184	0.421463	-0.35763	0	0	-0.255648	0.0109601	-0.132645	0.256652	-0.219283	0	0	-0.470269	-0.0467881	0.10767	0.180835	-0.43248	-0.0263932	1.7328	1.5708	0	0	0.335531	0.0564471	0.200565	1.52684	1.5708	0	0
140.15	3.06308	1.40284	-1.36609	0.732565	0.49642	1.08091	0.211793	-0.0313938	0.0407124	0.378211	-0.367797	0	0	-0.257786	0.010726	-0.134192	0.258	-0.215403	0	0	-0.467864	-0.0468177	0.108007	0.178957	-0.432715	-0.0281153	1.73734	1.5708	0	0	0.335396	0.056722	0.200364	1.52931	1.5708	0	0
140.16	3.06712	1.41446	-1.36999	0.732294	0.502701	1.07904	0.221333	-0.0331217	0.0402331	0.342081	-0.376483	0	0	-0.250688	0.0133863	-0.133003	0.261333	-0.210863	0	0	-0.457757	-0.0496276	0.108246	0.175514	-0.431948	-0.0304578	1.74203	1.5708	0	0	0.33393	0.0561483	0.20043	1.53242	1.5708	0	0
140.17	3.0632	1.40829	-1.36292	0.731758	0.509479	1.07921	0.205556	-0.0299742	0.0295403	0.297148	-0.385762	0	0	-0.264783	0.00919695	-0.136512	0.26031	-0.209348	0	0	-0.465227	-0.0467947	0.108439	0.173784	-0.433021	-0.0330678	1.74775	1.5708	0	0	0.335199	0.0567081	0.201055	1.53537	1.5708	0	0
140.18	3.06558	1.41959	-1.36497	0.731548	0.516088	1.07734	0.214917	-0.0311744	0.0308371	0.268482	-0.388366	0	0	-0.257678	0.0112332	-0.136123	0.264814	-0.204807	0	0	-0.454712	-0.049724	0.108954	0.169518	-0.432498	-0.0355134	1.75217	1.5708	0	0	0.33326	0.0560725	0.201629	1.53847	1.5708	0	0
140.19	3.06433	1.42139	-1.36158	0.731181	0.52292	1.07655	0.211289	-0.0298214	0.0272504	0.238214	-0.391661	0	0	-0.261575	0.00976726	-0.137321	0.267565	-0.201609	0	0	-0.453856	-0.0496738	0.109631	0.165839	-0.432843	-0.039089	1.75748	1.5708	0	0	0.333202	0.0567653	0.202368	1.54117	1.5708	0	0
140.2	3.06225	1.4222	-1.35704	0.730856	0.529903	1.07584	0.207148	-0.0279887	0.0236773	0.213705	-0.391784	0	0	-0.266345	0.0076425	-0.138787	0.270888	-0.198686	0	0	-0.454106	-0.049168	0.110299	0.161702	-0.433034	-0.0428881	1.76365	1.5708	0	0	0.333186	0.0573136	0.203152	1.54432	1.5708	0	0
140.21	3.06089	1.42263	-1.35312	0.730567	0.536995	1.07516	0.203283	-0.0260869	0.0209079	0.195183	-0.389881	0	0	-0.271187	0.00536065	-0.140332	0.275063	-0.195849	0	0	-0.454753	-0.0488581	0.11124	0.156916	-0.433246	-0.0469787	1.7704	1.5708	0	0	0.333262	0.0577631	0.204462	1.54744	1.5708	0	0
140.22	3.05896	1.42272	-1.34866	0.730201	0.544201	1.07446	0.199823	-0.0241783	0.0186502	0.182764	-0.386171	0	0	-0.276301	0.00308591	-0.141739	0.279481	-0.193062	0	0	-0.455547	-0.0483485	0.112496	0.151721	-0.433877	-0.0516005	1.77743	1.5708	0	0	0.333223	0.0582917	0.206262	1.55045	1.5708	0	0
140.23	3.05601	1.42258	-1.3433	0.729975	0.551523	1.07375	0.196778	-0.021758	0.0178693	0.176198	-0.380841	0	0	-0.281615	0.000552967	-0.142853	0.283984	-0.190267	0	0	-0.456457	-0.0479171	0.11428	0.14602	-0.434302	-0.0567162	1.78479	1.5708	0	0	0.333073	0.0587561	0.208197	1.5538	1.5708	0	0
140.24	3.0527	1.42242	-1.33794	0.729829	0.558942	1.07297	0.19473	-0.0191669	0.0184283	0.176181	-0.375375	0	0	-0.286828	-0.00190306	-0.143644	0.288774	-0.18737	0	0	-0.457164	-0.0479442	0.116736	0.13972	-0.434492	-0.062425	1.79221	1.5708	0	0	0.332855	0.0593273	0.210487	1.55722	1.5708	0	0
140.25	3.05021	1.4223	-1.33399	0.729799	0.566449	1.07213	0.194148	-0.016498	0.0198358	0.183692	-0.371974	0	0	-0.292042	-0.00398168	-0.144006	0.293651	-0.1844	0	0	-0.457676	-0.0486513	0.119791	0.133021	-0.434653	-0.0680123	1.79963	1.5708	0	0	0.332592	0.059896	0.212998	1.56059	1.5708	0	0
140.26	3.04545	1.423	-1.32787	0.729918	0.574127	1.0712	0.194914	-0.0132191	0.0210208	0.196156	-0.371221	0	0	-0.296244	-0.00618574	-0.143267	0.298773	-0.181192	0	0	-0.456752	-0.0497615	0.122532	0.126402	-0.434426	-0.0724089	1.80607	1.5708	0	0	0.331677	0.0599973	0.215058	1.56409	1.5708	0	0
140.27	3.03891	1.42351	-1.31963	0.730341	0.582142	1.07016	0.197312	-0.00933593	0.0229919	0.217284	-0.367694	0	0	-0.300109	-0.00968091	-0.143799	0.30563	-0.177593	0	0	-0.450735	-0.0465586	0.121751	0.125189	-0.433117	-0.0678595	1.80641	1.5708	0	0	0.326888	0.0588526	0.210693	1.56515	1.5708	0	0
140.28	3.03137	1.42391	-1.31093	0.730802	0.590256	1.06912	0.198552	-0.00513344	0.0256654	0.237323	-0.361983	0	0	-0.30355	-0.0132577	-0.145105	0.313752	-0.17395	0	0	-0.44481	-0.0432895	0.121395	0.123963	-0.432123	-0.0634266	1.80712	1.5708	0	0	0.321775	0.0577459	0.206179	1.56673	1.5708	0	0
140.29	3.02286	1.42385	-1.30161	0.731333	0.598486	1.06809	0.198358	-0.000748792	0.0294996	0.255124	-0.354496	0	0	-0.307135	-0.0170847	-0.146779	0.322644	-0.170427	0	0	-0.43913	-0.040232	0.121655	0.122573	-0.431248	-0.0594617	1.80786	1.5708	0	0	0.316606	0.0568352	0.201975	1.56822	1.5708	0	0
140.3	3.01064	1.42361	-1.28867	0.731841	0.606798	1.06712	0.196319	0.00407272	0.0338199	0.267121	-0.350249	0	0	-0.310494	-0.0213866	-0.148157	0.33203	-0.16709	0	0	-0.433539	-0.0367304	0.122344	0.120929	-0.430138	-0.0559525	1.80868	1.5708	0	0	0.311384	0.0561181	0.198002	1.56965	1.5708	0	0
